<svg xmlns="http://www.w3.org/2000/svg" viewBox="0 175 1283 140">
  <g>
    <path d="m 244.059,5430.47 h 59.804 c 76.7,0 88.407,33.94 88.407,118.19 0,113.51 -40.305,113.51 -120.907,113.51 H 244.059 Z M 4.85156,5828.34 H 260.965 c 262.605,0 370.512,-39.79 370.512,-284.36 0,-136.91 -37.7,-279.68 -252.211,-279.68 H 244.059 V 4893.35 H 4.85156 v 934.99" style="fill:#2c4681;fill-rule:nonzero" transform="matrix(0.13333333,0,0,-0.13333333,0,960.50667)"/>
    <path d="m 979.078,5268.89 -62.402,-40.96 c -26,-17.55 -39.004,-37.44 -39.004,-66.7 v -99.47 c 0,-42.13 18.203,-59.68 49.402,-59.68 35.106,0 52.004,29.26 52.004,65.53 z M 1194.88,4893.25 H 989.477 v 57.34 h -2.602 c -33.797,-45.64 -96.199,-72.55 -158.602,-72.55 -163.808,0 -182.007,107.66 -182.007,228.19 0,140.43 87.105,187.24 169.004,220 83.203,31.59 163.808,49.15 163.808,129.89 0,39.79 -10.402,62.03 -52.004,62.03 -40.301,0 -57.199,-19.9 -57.199,-51.5 V 5405.8 H 661.867 v 67.87 c 0,110.01 109.203,182.56 262.606,182.56 201.507,0 270.407,-72.55 270.407,-234.04 v -528.94" style="fill:#2c4681;fill-rule:nonzero" transform="matrix(0.13333333,0,0,-0.13333333,0,960.50667)"/>
    <path d="m 1239.86,5641.11 h 215.8 v -83.09 h 2.6 c 40.3,63.19 84.51,98.3 170.31,98.3 106.6,0 159.9,-70.22 159.9,-160.32 v -602.66 h -223.6 v 511.38 c 0,26.92 0,71.38 -50.7,71.38 -50.71,0 -50.71,-53.82 -50.71,-71.38 v -511.38 h -223.6 v 747.77" style="fill:#2c4681;fill-rule:nonzero" transform="matrix(0.13333333,0,0,-0.13333333,0,960.50667)"/>
    <path d="m 1814,5130.25 h 200.21 v -45.64 c 0,-29.26 9.1,-66.7 57.2,-66.7 33.8,0 49.4,21.06 49.4,55 0,59.68 -76.7,97.13 -149.51,147.45 -72.8,50.31 -149.5,112.34 -149.5,222.33 0,141.6 102.7,215.32 249.61,215.32 154.7,0 248.31,-58.51 248.31,-196.59 v -39.79 h -200.21 v 39.79 c 0,18.72 -1.3,58.51 -48.1,58.51 -31.2,0 -49.4,-16.39 -49.4,-50.32 0,-59.68 87.1,-94.79 153.4,-147.45 76.7,-52.66 153.41,-107.66 153.41,-222.34 0,-60.85 -14.3,-220 -257.41,-220 -197.61,0 -257.41,78.41 -257.41,201.28 v 49.15" style="fill:#2c4681;fill-rule:nonzero" transform="matrix(0.13333333,0,0,-0.13333333,0,960.50667)"/>
    <path d="m 2354.96,5828.34 h 223.61 v -256.28 h 2.6 c 37.7,55 83.2,84.26 162.51,84.26 106.6,0 159.9,-70.22 159.9,-160.32 v -602.66 h -223.61 v 511.38 c 0,26.92 0,71.38 -50.7,71.38 -50.7,0 -50.7,-53.82 -50.7,-71.38 v -511.38 h -223.61 v 935" style="fill:#2c4681;fill-rule:nonzero" transform="matrix(0.13333333,0,0,-0.13333333,0,960.50667)"/>
    <path d="m 3282.22,5268.89 -62.4,-40.96 c -26.01,-17.55 -39.01,-37.44 -39.01,-66.7 v -99.47 c 0,-42.13 18.21,-59.68 49.41,-59.68 35.09,0 52,29.26 52,65.53 z m 215.8,-375.64 h -205.4 v 57.34 h -2.6 c -33.8,-45.64 -96.21,-72.55 -158.61,-72.55 -163.81,0 -182,107.66 -182,228.19 0,140.43 87.1,187.24 169,220 83.2,31.59 163.81,49.15 163.81,129.89 0,39.79 -10.4,62.03 -52,62.03 -40.31,0 -57.21,-19.9 -57.21,-51.5 v -60.85 h -208 v 67.87 c 0,110.01 109.2,182.56 262.6,182.56 201.51,0 270.41,-72.55 270.41,-234.04 v -528.94" style="fill:#2c4681;fill-rule:nonzero" transform="matrix(0.13333333,0,0,-0.13333333,0,960.50667)"/>
    <path d="m 3773.41,5304.09 122.2,337.02 h 228.81 l -130.01,-327.66 133.91,-420.1 h -228.81 z m -230.11,524.25 h 223.61 V 4893.35 H 3543.3 v 934.99" style="fill:#2c4681;fill-rule:nonzero" transform="matrix(0.13333333,0,0,-0.13333333,0,960.50667)"/>
    <path d="m 4360.71,5375.47 h 101.4 v 81.91 c 0,25.75 0,60.86 -50.7,60.86 -50.7,0 -50.7,-35.11 -50.7,-60.86 z m -223.61,67.88 c 0,87.76 50.71,212.97 274.31,212.97 223.61,0 274.31,-125.21 274.31,-212.97 v -205.96 h -325.01 v -160.32 c 0,-25.75 0,-60.85 50.7,-60.85 50.7,0 50.7,35.1 50.7,60.85 v 93.61 h 223.61 v -79.57 c 0,-87.76 -50.7,-212.98 -274.31,-212.98 -223.6,0 -274.31,125.22 -274.31,212.98 v 352.24" style="fill:#2c4681;fill-rule:nonzero" transform="matrix(0.13333333,0,0,-0.13333333,0,960.50667)"/>
    <path d="m 4730.96,5641.11 h 211.9 v -132.24 h 2.6 c 31.2,69.04 58.5,147.45 159.91,147.45 v -243.41 h -52 c -76.71,0 -98.81,-43.29 -98.81,-94.78 v -424.79 h -223.6 v 747.77" style="fill:#2c4681;fill-rule:nonzero" transform="matrix(0.13333333,0,0,-0.13333333,0,960.50667)"/>
    <path d="m 5603.31,5210.38 v -69.04 c 0,-50.32 13,-97.13 80.6,-97.13 54.6,0 83.2,31.59 83.2,72.55 0,81.91 -94.9,136.92 -189.8,198.94 -96.2,71.38 -192.41,122.87 -192.41,265.63 0,183.73 114.41,262.13 305.51,262.13 208.01,0 299.01,-91.27 299.01,-235.21 v -84.26 h -223.61 v 50.32 c 0,46.81 -7.79,102.98 -75.4,102.98 -50.7,0 -81.9,-26.91 -81.9,-70.21 0,-56.17 101.41,-120.53 198.91,-186.06 88.4,-70.22 198.9,-115.86 198.9,-304.26 0,-90.11 -75.4,-238.72 -325.01,-238.72 -236.61,0 -309.41,134.58 -309.41,231.7 v 100.64 h 231.41" style="fill:#5dba47;fill-rule:nonzero" transform="matrix(0.13333333,0,0,-0.13333333,0,960.50667)"/>
    <path d="m 6269.1,5375.47 h 101.4 v 81.91 c 0,25.75 0,60.86 -50.7,60.86 -50.7,0 -50.7,-35.11 -50.7,-60.86 z m -223.61,67.88 c 0,87.76 50.7,212.97 274.31,212.97 223.61,0 274.31,-125.21 274.31,-212.97 V 5237.39 H 6269.1 v -160.32 c 0,-25.75 0,-60.85 50.7,-60.85 50.7,0 50.7,35.1 50.7,60.85 v 93.61 h 223.61 v -79.57 c 0,-87.76 -50.7,-212.98 -274.31,-212.98 -223.61,0 -274.31,125.22 -274.31,212.98 v 352.24" style="fill:#5dba47;fill-rule:nonzero" transform="matrix(0.13333333,0,0,-0.13333333,0,960.50667)"/>
    <path d="m 6638.63,5641.11 h 211.91 v -132.23 h 2.6 c 31.2,69.04 58.5,147.44 159.91,147.44 v -243.4 h -52 c -76.71,0 -98.81,-43.3 -98.81,-94.79 v -424.78 h -223.61 v 747.76" style="fill:#5dba47;fill-rule:nonzero" transform="matrix(0.13333333,0,0,-0.13333333,0,960.50667)"/>
    <path d="m 7057.57,5641.11 h 230.11 l 52,-478.62 h 2.61 l 55.9,478.62 h 223.6 l -152.1,-747.77 h -261.3 l -150.82,747.77" style="fill:#5dba47;fill-rule:nonzero" transform="matrix(0.13333333,0,0,-0.13333333,0,960.50667)"/>
    <path d="m 7667.03,5641.11 h 223.6 v -747.77 h -223.6 z m 0,187.23 h 223.6 v -138.09 h -223.6 v 138.09" style="fill:#5dba47;fill-rule:nonzero" transform="matrix(0.13333333,0,0,-0.13333333,0,960.50667)"/>
    <path d="m 7935.86,5443.35 c 0,87.76 50.71,212.97 274.31,212.97 223.61,0 274.32,-125.21 274.32,-212.97 v -79.58 h -223.62 v 93.61 c 0,25.75 0,60.86 -50.7,60.86 -50.7,0 -50.7,-35.11 -50.7,-60.86 v -380.31 c 0,-25.75 0,-60.85 50.7,-60.85 50.7,0 50.7,35.1 50.7,60.85 v 134.57 h 223.62 v -120.53 c 0,-87.76 -50.71,-212.98 -274.32,-212.98 -223.6,0 -274.31,125.22 -274.31,212.98 v 352.24" style="fill:#5dba47;fill-rule:nonzero" transform="matrix(0.13333333,0,0,-0.13333333,0,960.50667)"/>
    <path d="m 8753.21,5375.47 h 101.4 v 81.91 c 0,25.75 0,60.86 -50.7,60.86 -50.7,0 -50.7,-35.11 -50.7,-60.86 z m -223.61,67.88 c 0,87.76 50.71,212.97 274.31,212.97 223.61,0 274.32,-125.21 274.32,-212.97 v -205.96 h -325.02 v -160.32 c 0,-25.75 0,-60.85 50.7,-60.85 50.7,0 50.7,35.1 50.7,60.85 v 93.61 h 223.62 v -79.57 c 0,-87.76 -50.71,-212.98 -274.32,-212.98 -223.6,0 -274.31,125.22 -274.31,212.98 v 352.24" style="fill:#5dba47;fill-rule:nonzero" transform="matrix(0.13333333,0,0,-0.13333333,0,960.50667)"/>
    <path d="m 9103.63,5128.56 h 200.2 v -45.64 c 0,-29.26 9.1,-66.7 57.21,-66.7 33.8,0 49.39,21.06 49.39,55 0,59.68 -76.69,97.13 -149.5,147.45 -72.8,50.31 -149.5,112.34 -149.5,222.33 0,141.6 102.71,215.32 249.61,215.32 154.71,0 248.31,-58.51 248.31,-196.59 v -39.79 h -200.21 v 39.79 c 0,18.72 -1.3,58.51 -48.1,58.51 -31.2,0 -49.4,-16.39 -49.4,-50.32 0,-59.68 87.1,-94.79 153.4,-147.45 76.7,-52.66 153.4,-107.66 153.4,-222.34 0,-60.85 -14.29,-220 -257.4,-220 -197.61,0 -257.41,78.41 -257.41,201.28 v 49.15" style="fill:#5dba47;fill-rule:nonzero" transform="matrix(0.13333333,0,0,-0.13333333,0,960.50667)"/>
  </g>
</svg>
