<?xml version="1.0" encoding="UTF-8" standalone="no"?>
<!-- Created with Inkscape (http://www.inkscape.org/) -->

<svg
   version="1.1"
   id="svg1"
   width="1283.12"
   height="960.50665"
   viewBox="0 0 1283.12 960.50665"
   sodipodi:docname="panshaker logo.eps"
   xmlns:inkscape="http://www.inkscape.org/namespaces/inkscape"
   xmlns:sodipodi="http://sodipodi.sourceforge.net/DTD/sodipodi-0.dtd"
   xmlns="http://www.w3.org/2000/svg"
   xmlns:svg="http://www.w3.org/2000/svg">
  <defs
     id="defs1" />
  <sodipodi:namedview
     id="namedview1"
     pagecolor="#ffffff"
     bordercolor="#000000"
     borderopacity="0.25"
     inkscape:showpageshadow="2"
     inkscape:pageopacity="0.0"
     inkscape:pagecheckerboard="0"
     inkscape:deskcolor="#d1d1d1">
    <inkscape:page
       x="0"
       y="0"
       inkscape:label="1"
       id="page1"
       width="1283.12"
       height="960.50665"
       margin="0"
       bleed="0" />
  </sodipodi:namedview>
  <g
     id="g1"
     inkscape:groupmode="layer"
     inkscape:label="1">
    <g
       id="group-R5">
      <path
         id="path2"
         d="m 244.059,5430.47 h 59.804 c 76.7,0 88.407,33.94 88.407,118.19 0,113.51 -40.305,113.51 -120.907,113.51 H 244.059 Z M 4.85156,5828.34 H 260.965 c 262.605,0 370.512,-39.79 370.512,-284.36 0,-136.91 -37.7,-279.68 -252.211,-279.68 H 244.059 V 4893.35 H 4.85156 v 934.99"
         style="fill:#2c4681;fill-opacity:1;fill-rule:nonzero;stroke:none"
         transform="matrix(0.13333333,0,0,-0.13333333,0,960.50667)" />
      <path
         id="path3"
         d="m 979.078,5268.89 -62.402,-40.96 c -26,-17.55 -39.004,-37.44 -39.004,-66.7 v -99.47 c 0,-42.13 18.203,-59.68 49.402,-59.68 35.106,0 52.004,29.26 52.004,65.53 z M 1194.88,4893.25 H 989.477 v 57.34 h -2.602 c -33.797,-45.64 -96.199,-72.55 -158.602,-72.55 -163.808,0 -182.007,107.66 -182.007,228.19 0,140.43 87.105,187.24 169.004,220 83.203,31.59 163.808,49.15 163.808,129.89 0,39.79 -10.402,62.03 -52.004,62.03 -40.301,0 -57.199,-19.9 -57.199,-51.5 V 5405.8 H 661.867 v 67.87 c 0,110.01 109.203,182.56 262.606,182.56 201.507,0 270.407,-72.55 270.407,-234.04 v -528.94"
         style="fill:#2c4681;fill-opacity:1;fill-rule:nonzero;stroke:none"
         transform="matrix(0.13333333,0,0,-0.13333333,0,960.50667)" />
      <path
         id="path4"
         d="m 1239.86,5641.11 h 215.8 v -83.09 h 2.6 c 40.3,63.19 84.51,98.3 170.31,98.3 106.6,0 159.9,-70.22 159.9,-160.32 v -602.66 h -223.6 v 511.38 c 0,26.92 0,71.38 -50.7,71.38 -50.71,0 -50.71,-53.82 -50.71,-71.38 v -511.38 h -223.6 v 747.77"
         style="fill:#2c4681;fill-opacity:1;fill-rule:nonzero;stroke:none"
         transform="matrix(0.13333333,0,0,-0.13333333,0,960.50667)" />
      <path
         id="path5"
         d="m 1814,5130.25 h 200.21 v -45.64 c 0,-29.26 9.1,-66.7 57.2,-66.7 33.8,0 49.4,21.06 49.4,55 0,59.68 -76.7,97.13 -149.51,147.45 -72.8,50.31 -149.5,112.34 -149.5,222.33 0,141.6 102.7,215.32 249.61,215.32 154.7,0 248.31,-58.51 248.31,-196.59 v -39.79 h -200.21 v 39.79 c 0,18.72 -1.3,58.51 -48.1,58.51 -31.2,0 -49.4,-16.39 -49.4,-50.32 0,-59.68 87.1,-94.79 153.4,-147.45 76.7,-52.66 153.41,-107.66 153.41,-222.34 0,-60.85 -14.3,-220 -257.41,-220 -197.61,0 -257.41,78.41 -257.41,201.28 v 49.15"
         style="fill:#2c4681;fill-opacity:1;fill-rule:nonzero;stroke:none"
         transform="matrix(0.13333333,0,0,-0.13333333,0,960.50667)" />
      <path
         id="path6"
         d="m 2354.96,5828.34 h 223.61 v -256.28 h 2.6 c 37.7,55 83.2,84.26 162.51,84.26 106.6,0 159.9,-70.22 159.9,-160.32 v -602.66 h -223.61 v 511.38 c 0,26.92 0,71.38 -50.7,71.38 -50.7,0 -50.7,-53.82 -50.7,-71.38 v -511.38 h -223.61 v 935"
         style="fill:#2c4681;fill-opacity:1;fill-rule:nonzero;stroke:none"
         transform="matrix(0.13333333,0,0,-0.13333333,0,960.50667)" />
      <path
         id="path7"
         d="m 3282.22,5268.89 -62.4,-40.96 c -26.01,-17.55 -39.01,-37.44 -39.01,-66.7 v -99.47 c 0,-42.13 18.21,-59.68 49.41,-59.68 35.09,0 52,29.26 52,65.53 z m 215.8,-375.64 h -205.4 v 57.34 h -2.6 c -33.8,-45.64 -96.21,-72.55 -158.61,-72.55 -163.81,0 -182,107.66 -182,228.19 0,140.43 87.1,187.24 169,220 83.2,31.59 163.81,49.15 163.81,129.89 0,39.79 -10.4,62.03 -52,62.03 -40.31,0 -57.21,-19.9 -57.21,-51.5 v -60.85 h -208 v 67.87 c 0,110.01 109.2,182.56 262.6,182.56 201.51,0 270.41,-72.55 270.41,-234.04 v -528.94"
         style="fill:#2c4681;fill-opacity:1;fill-rule:nonzero;stroke:none"
         transform="matrix(0.13333333,0,0,-0.13333333,0,960.50667)" />
      <path
         id="path8"
         d="m 3773.41,5304.09 122.2,337.02 h 228.81 l -130.01,-327.66 133.91,-420.1 h -228.81 z m -230.11,524.25 h 223.61 V 4893.35 H 3543.3 v 934.99"
         style="fill:#2c4681;fill-opacity:1;fill-rule:nonzero;stroke:none"
         transform="matrix(0.13333333,0,0,-0.13333333,0,960.50667)" />
      <path
         id="path9"
         d="m 4360.71,5375.47 h 101.4 v 81.91 c 0,25.75 0,60.86 -50.7,60.86 -50.7,0 -50.7,-35.11 -50.7,-60.86 z m -223.61,67.88 c 0,87.76 50.71,212.97 274.31,212.97 223.61,0 274.31,-125.21 274.31,-212.97 v -205.96 h -325.01 v -160.32 c 0,-25.75 0,-60.85 50.7,-60.85 50.7,0 50.7,35.1 50.7,60.85 v 93.61 h 223.61 v -79.57 c 0,-87.76 -50.7,-212.98 -274.31,-212.98 -223.6,0 -274.31,125.22 -274.31,212.98 v 352.24"
         style="fill:#2c4681;fill-opacity:1;fill-rule:nonzero;stroke:none"
         transform="matrix(0.13333333,0,0,-0.13333333,0,960.50667)" />
      <path
         id="path10"
         d="m 4730.96,5641.11 h 211.9 v -132.24 h 2.6 c 31.2,69.04 58.5,147.45 159.91,147.45 v -243.41 h -52 c -76.71,0 -98.81,-43.29 -98.81,-94.78 v -424.79 h -223.6 v 747.77"
         style="fill:#2c4681;fill-opacity:1;fill-rule:nonzero;stroke:none"
         transform="matrix(0.13333333,0,0,-0.13333333,0,960.50667)" />
      <path
         id="path11"
         d="m 5603.31,5210.38 v -69.04 c 0,-50.32 13,-97.13 80.6,-97.13 54.6,0 83.2,31.59 83.2,72.55 0,81.91 -94.9,136.92 -189.8,198.94 -96.2,71.38 -192.41,122.87 -192.41,265.63 0,183.73 114.41,262.13 305.51,262.13 208.01,0 299.01,-91.27 299.01,-235.21 v -84.26 h -223.61 v 50.32 c 0,46.81 -7.79,102.98 -75.4,102.98 -50.7,0 -81.9,-26.91 -81.9,-70.21 0,-56.17 101.41,-120.53 198.91,-186.06 88.4,-70.22 198.9,-115.86 198.9,-304.26 0,-90.11 -75.4,-238.72 -325.01,-238.72 -236.61,0 -309.41,134.58 -309.41,231.7 v 100.64 h 231.41"
         style="fill:#5dba47;fill-opacity:1;fill-rule:nonzero;stroke:none"
         transform="matrix(0.13333333,0,0,-0.13333333,0,960.50667)" />
      <path
         id="path12"
         d="m 6269.1,5375.47 h 101.4 v 81.91 c 0,25.75 0,60.86 -50.7,60.86 -50.7,0 -50.7,-35.11 -50.7,-60.86 z m -223.61,67.88 c 0,87.76 50.7,212.97 274.31,212.97 223.61,0 274.31,-125.21 274.31,-212.97 V 5237.39 H 6269.1 v -160.32 c 0,-25.75 0,-60.85 50.7,-60.85 50.7,0 50.7,35.1 50.7,60.85 v 93.61 h 223.61 v -79.57 c 0,-87.76 -50.7,-212.98 -274.31,-212.98 -223.61,0 -274.31,125.22 -274.31,212.98 v 352.24"
         style="fill:#5dba47;fill-opacity:1;fill-rule:nonzero;stroke:none"
         transform="matrix(0.13333333,0,0,-0.13333333,0,960.50667)" />
      <path
         id="path13"
         d="m 6638.63,5641.11 h 211.91 v -132.23 h 2.6 c 31.2,69.04 58.5,147.44 159.91,147.44 v -243.4 h -52 c -76.71,0 -98.81,-43.3 -98.81,-94.79 v -424.78 h -223.61 v 747.76"
         style="fill:#5dba47;fill-opacity:1;fill-rule:nonzero;stroke:none"
         transform="matrix(0.13333333,0,0,-0.13333333,0,960.50667)" />
      <path
         id="path14"
         d="m 7057.57,5641.11 h 230.11 l 52,-478.62 h 2.61 l 55.9,478.62 h 223.6 l -152.1,-747.77 h -261.3 l -150.82,747.77"
         style="fill:#5dba47;fill-opacity:1;fill-rule:nonzero;stroke:none"
         transform="matrix(0.13333333,0,0,-0.13333333,0,960.50667)" />
      <path
         id="path15"
         d="m 7667.03,5641.11 h 223.6 v -747.77 h -223.6 z m 0,187.23 h 223.6 v -138.09 h -223.6 v 138.09"
         style="fill:#5dba47;fill-opacity:1;fill-rule:nonzero;stroke:none"
         transform="matrix(0.13333333,0,0,-0.13333333,0,960.50667)" />
      <path
         id="path16"
         d="m 7935.86,5443.35 c 0,87.76 50.71,212.97 274.31,212.97 223.61,0 274.32,-125.21 274.32,-212.97 v -79.58 h -223.62 v 93.61 c 0,25.75 0,60.86 -50.7,60.86 -50.7,0 -50.7,-35.11 -50.7,-60.86 v -380.31 c 0,-25.75 0,-60.85 50.7,-60.85 50.7,0 50.7,35.1 50.7,60.85 v 134.57 h 223.62 v -120.53 c 0,-87.76 -50.71,-212.98 -274.32,-212.98 -223.6,0 -274.31,125.22 -274.31,212.98 v 352.24"
         style="fill:#5dba47;fill-opacity:1;fill-rule:nonzero;stroke:none"
         transform="matrix(0.13333333,0,0,-0.13333333,0,960.50667)" />
      <path
         id="path17"
         d="m 8753.21,5375.47 h 101.4 v 81.91 c 0,25.75 0,60.86 -50.7,60.86 -50.7,0 -50.7,-35.11 -50.7,-60.86 z m -223.61,67.88 c 0,87.76 50.71,212.97 274.31,212.97 223.61,0 274.32,-125.21 274.32,-212.97 v -205.96 h -325.02 v -160.32 c 0,-25.75 0,-60.85 50.7,-60.85 50.7,0 50.7,35.1 50.7,60.85 v 93.61 h 223.62 v -79.57 c 0,-87.76 -50.71,-212.98 -274.32,-212.98 -223.6,0 -274.31,125.22 -274.31,212.98 v 352.24"
         style="fill:#5dba47;fill-opacity:1;fill-rule:nonzero;stroke:none"
         transform="matrix(0.13333333,0,0,-0.13333333,0,960.50667)" />
      <path
         id="path18"
         d="m 9103.63,5128.56 h 200.2 v -45.64 c 0,-29.26 9.1,-66.7 57.21,-66.7 33.8,0 49.39,21.06 49.39,55 0,59.68 -76.69,97.13 -149.5,147.45 -72.8,50.31 -149.5,112.34 -149.5,222.33 0,141.6 102.71,215.32 249.61,215.32 154.71,0 248.31,-58.51 248.31,-196.59 v -39.79 h -200.21 v 39.79 c 0,18.72 -1.3,58.51 -48.1,58.51 -31.2,0 -49.4,-16.39 -49.4,-50.32 0,-59.68 87.1,-94.79 153.4,-147.45 76.7,-52.66 153.4,-107.66 153.4,-222.34 0,-60.85 -14.29,-220 -257.4,-220 -197.61,0 -257.41,78.41 -257.41,201.28 v 49.15"
         style="fill:#5dba47;fill-opacity:1;fill-rule:nonzero;stroke:none"
         transform="matrix(0.13333333,0,0,-0.13333333,0,960.50667)" />
      <path
         id="path19"
         d="m 244.211,6785.85 h 59.805 c 76.699,0 88.402,33.94 88.402,118.19 0,113.51 -40.305,113.51 -120.902,113.51 H 244.211 Z M 5,7183.72 h 256.113 c 262.61,0 370.512,-39.79 370.512,-284.36 0,-136.91 -37.699,-279.68 -252.211,-279.68 H 244.211 V 6248.73 H 5 Z"
         style="fill:none;stroke:#0e0f0e;stroke-width:10;stroke-linecap:butt;stroke-linejoin:miter;stroke-miterlimit:10;stroke-dasharray:none;stroke-opacity:1"
         transform="matrix(0.13333333,0,0,-0.13333333,0,960.50667)" />
      <path
         id="path20"
         d="m 979.227,6624.27 -62.403,-40.96 c -26,-17.55 -39.004,-37.44 -39.004,-66.7 v -99.47 c 0,-42.12 18.203,-59.68 49.407,-59.68 35.101,0 52,29.26 52,65.53 z M 1195.03,6248.63 H 989.629 v 57.34 h -2.606 c -33.796,-45.64 -96.199,-72.55 -158.601,-72.55 -163.809,0 -182.008,107.66 -182.008,228.19 0,140.43 87.106,187.23 169.004,220 83.203,31.59 163.809,49.15 163.809,129.89 0,39.79 -10.399,62.02 -52,62.02 -40.305,0 -57.204,-19.89 -57.204,-51.49 v -60.85 H 662.016 v 67.87 c 0,110 109.203,182.56 262.605,182.56 201.509,0 270.409,-72.56 270.409,-234.04 z"
         style="fill:none;stroke:#0e0f0e;stroke-width:10;stroke-linecap:butt;stroke-linejoin:miter;stroke-miterlimit:10;stroke-dasharray:none;stroke-opacity:1"
         transform="matrix(0.13333333,0,0,-0.13333333,0,960.50667)" />
      <path
         id="path21"
         d="m 1240,6996.48 h 215.81 v -83.08 h 2.6 c 40.3,63.19 84.5,98.3 170.31,98.3 106.6,0 159.9,-70.22 159.9,-160.32 v -602.66 h -223.61 v 511.38 c 0,26.92 0,71.38 -50.69,71.38 -50.71,0 -50.71,-53.82 -50.71,-71.38 V 6248.72 H 1240 Z"
         style="fill:none;stroke:#0e0f0e;stroke-width:10;stroke-linecap:butt;stroke-linejoin:miter;stroke-miterlimit:10;stroke-dasharray:none;stroke-opacity:1"
         transform="matrix(0.13333333,0,0,-0.13333333,0,960.50667)" />
      <path
         id="path22"
         d="m 1814.15,6485.63 h 200.21 v -45.64 c 0,-29.26 9.1,-66.7 57.2,-66.7 33.8,0 49.4,21.06 49.4,55 0,59.68 -76.7,97.12 -149.51,147.44 -72.8,50.32 -149.5,112.34 -149.5,222.34 0,141.6 102.7,215.32 249.61,215.32 154.7,0 248.31,-58.51 248.31,-196.59 v -39.79 h -200.21 v 39.79 c 0,18.72 -1.3,58.51 -48.1,58.51 -31.21,0 -49.4,-16.39 -49.4,-50.32 0,-59.68 87.1,-94.79 153.4,-147.45 76.7,-52.66 153.41,-107.66 153.41,-222.34 0,-60.85 -14.3,-220 -257.41,-220 -197.61,0 -257.41,78.41 -257.41,201.28 z"
         style="fill:none;stroke:#0e0f0e;stroke-width:10;stroke-linecap:butt;stroke-linejoin:miter;stroke-miterlimit:10;stroke-dasharray:none;stroke-opacity:1"
         transform="matrix(0.13333333,0,0,-0.13333333,0,960.50667)" />
      <path
         id="path23"
         d="m 2355.11,7183.72 h 223.61 v -256.28 h 2.6 c 37.7,55 83.2,84.26 162.5,84.26 106.61,0 159.91,-70.22 159.91,-160.32 v -602.66 h -223.61 v 511.38 c 0,26.92 0,71.38 -50.7,71.38 -50.7,0 -50.7,-53.82 -50.7,-71.38 v -511.38 h -223.61 z"
         style="fill:none;stroke:#0e0f0e;stroke-width:10;stroke-linecap:butt;stroke-linejoin:miter;stroke-miterlimit:10;stroke-dasharray:none;stroke-opacity:1"
         transform="matrix(0.13333333,0,0,-0.13333333,0,960.50667)" />
      <path
         id="path24"
         d="m 3282.37,6624.27 -62.41,-40.96 c -26,-17.55 -39,-37.44 -39,-66.7 v -99.47 c 0,-42.12 18.2,-59.68 49.41,-59.68 35.09,0 52,29.26 52,65.53 z m 215.8,-375.64 h -205.4 v 57.34 h -2.61 c -33.79,-45.64 -96.2,-72.55 -158.6,-72.55 -163.81,0 -182.01,107.66 -182.01,228.19 0,140.43 87.1,187.23 169.01,220 83.2,31.59 163.81,49.15 163.81,129.89 0,39.79 -10.4,62.02 -52,62.02 -40.31,0 -57.21,-19.89 -57.21,-51.49 v -60.85 h -208 v 67.87 c 0,110 109.2,182.56 262.6,182.56 201.51,0 270.41,-72.56 270.41,-234.04 z"
         style="fill:none;stroke:#0e0f0e;stroke-width:10;stroke-linecap:butt;stroke-linejoin:miter;stroke-miterlimit:10;stroke-dasharray:none;stroke-opacity:1"
         transform="matrix(0.13333333,0,0,-0.13333333,0,960.50667)" />
      <path
         id="path25"
         d="m 3773.56,6659.47 122.2,337.02 h 228.81 l -130.01,-327.66 133.91,-420.1 h -228.81 z m -230.11,524.25 h 223.61 v -934.99 h -223.61 z"
         style="fill:none;stroke:#0e0f0e;stroke-width:10;stroke-linecap:butt;stroke-linejoin:miter;stroke-miterlimit:10;stroke-dasharray:none;stroke-opacity:1"
         transform="matrix(0.13333333,0,0,-0.13333333,0,960.50667)" />
      <path
         id="path26"
         d="m 4360.86,6730.85 h 101.4 v 81.91 c 0,25.75 0,60.86 -50.7,60.86 -50.7,0 -50.7,-35.11 -50.7,-60.86 z m -223.61,67.88 c 0,87.76 50.71,212.97 274.31,212.97 223.61,0 274.31,-125.21 274.31,-212.97 v -205.96 h -325.01 v -160.32 c 0,-25.75 0,-60.86 50.7,-60.86 50.7,0 50.7,35.11 50.7,60.86 v 93.61 h 223.61 v -79.57 c 0,-87.76 -50.7,-212.98 -274.31,-212.98 -223.6,0 -274.31,125.22 -274.31,212.98 z"
         style="fill:none;stroke:#0e0f0e;stroke-width:10;stroke-linecap:butt;stroke-linejoin:miter;stroke-miterlimit:10;stroke-dasharray:none;stroke-opacity:1"
         transform="matrix(0.13333333,0,0,-0.13333333,0,960.50667)" />
      <path
         id="path27"
         d="m 4731.1,6996.48 h 211.91 v -132.23 h 2.6 c 31.2,69.04 58.5,147.45 159.91,147.45 v -243.41 h -52 c -76.71,0 -98.81,-43.29 -98.81,-94.78 V 6248.72 H 4731.1 Z"
         style="fill:none;stroke:#0e0f0e;stroke-width:10;stroke-linecap:butt;stroke-linejoin:miter;stroke-miterlimit:10;stroke-dasharray:none;stroke-opacity:1"
         transform="matrix(0.13333333,0,0,-0.13333333,0,960.50667)" />
      <path
         id="path28"
         d="m 5603.46,6565.76 v -69.05 c 0,-50.32 13,-97.12 80.6,-97.12 54.6,0 83.2,31.59 83.2,72.55 0,81.91 -94.9,136.91 -189.8,198.93 -96.2,71.39 -192.41,122.88 -192.41,265.64 0,183.72 114.4,262.13 305.51,262.13 208.01,0 299.01,-91.27 299.01,-235.21 v -84.25 h -223.61 v 50.32 c 0,46.8 -7.8,102.97 -75.4,102.97 -50.7,0 -81.9,-26.91 -81.9,-70.21 0,-56.17 101.4,-120.53 198.9,-186.07 88.41,-70.21 198.91,-115.85 198.91,-304.25 0,-90.11 -75.4,-238.72 -325.01,-238.72 -236.61,0 -309.41,134.58 -309.41,231.7 v 100.64 z"
         style="fill:none;stroke:#0e0f0e;stroke-width:10;stroke-linecap:butt;stroke-linejoin:miter;stroke-miterlimit:10;stroke-dasharray:none;stroke-opacity:1"
         transform="matrix(0.13333333,0,0,-0.13333333,0,960.50667)" />
      <path
         id="path29"
         d="m 6269.25,6730.85 h 101.4 v 81.91 c 0,25.75 0,60.86 -50.7,60.86 -50.7,0 -50.7,-35.11 -50.7,-60.86 z m -223.61,67.88 c 0,87.76 50.7,212.97 274.31,212.97 223.6,0 274.31,-125.21 274.31,-212.97 v -205.96 h -325.01 v -160.32 c 0,-25.75 0,-60.86 50.7,-60.86 50.7,0 50.7,35.11 50.7,60.86 v 93.61 h 223.61 v -79.57 c 0,-87.76 -50.71,-212.98 -274.31,-212.98 -223.61,0 -274.31,125.22 -274.31,212.98 z"
         style="fill:none;stroke:#0e0f0e;stroke-width:10;stroke-linecap:butt;stroke-linejoin:miter;stroke-miterlimit:10;stroke-dasharray:none;stroke-opacity:1"
         transform="matrix(0.13333333,0,0,-0.13333333,0,960.50667)" />
      <path
         id="path30"
         d="m 6638.78,6996.49 h 211.91 v -132.23 h 2.6 c 31.2,69.04 58.5,147.44 159.91,147.44 v -243.4 h -52 c -76.71,0 -98.81,-43.3 -98.81,-94.79 v -424.78 h -223.61 z"
         style="fill:none;stroke:#0e0f0e;stroke-width:10;stroke-linecap:butt;stroke-linejoin:miter;stroke-miterlimit:10;stroke-dasharray:none;stroke-opacity:1"
         transform="matrix(0.13333333,0,0,-0.13333333,0,960.50667)" />
      <path
         id="path31"
         d="m 7057.57,6996.39 h 230.11 l 52,-478.61 h 2.61 l 55.9,478.61 h 223.6 l -152.1,-747.76 h -261.31 z"
         style="fill:none;stroke:#0e0f0e;stroke-width:10;stroke-linecap:butt;stroke-linejoin:miter;stroke-miterlimit:10;stroke-dasharray:none;stroke-opacity:1"
         transform="matrix(0.13333333,0,0,-0.13333333,0,960.50667)" />
      <path
         id="path32"
         d="m 7667.03,6996.5 h 223.6 v -747.77 h -223.6 z m 0,187.23 h 223.6 v -138.09 h -223.6 z"
         style="fill:none;stroke:#0e0f0e;stroke-width:10;stroke-linecap:butt;stroke-linejoin:miter;stroke-miterlimit:10;stroke-dasharray:none;stroke-opacity:1"
         transform="matrix(0.13333333,0,0,-0.13333333,0,960.50667)" />
      <path
         id="path33"
         d="m 7935.86,6798.63 c 0,87.76 50.71,212.98 274.31,212.98 223.61,0 274.32,-125.22 274.32,-212.98 v -79.58 h -223.62 v 93.62 c 0,25.75 0,60.85 -50.7,60.85 -50.7,0 -50.7,-35.1 -50.7,-60.85 v -380.32 c 0,-25.74 0,-60.85 50.7,-60.85 50.7,0 50.7,35.11 50.7,60.85 v 134.58 h 223.62 v -120.54 c 0,-87.76 -50.71,-212.97 -274.32,-212.97 -223.6,0 -274.31,125.21 -274.31,212.97 z"
         style="fill:none;stroke:#0e0f0e;stroke-width:10;stroke-linecap:butt;stroke-linejoin:miter;stroke-miterlimit:10;stroke-dasharray:none;stroke-opacity:1"
         transform="matrix(0.13333333,0,0,-0.13333333,0,960.50667)" />
      <path
         id="path34"
         d="m 8753.21,6730.76 h 101.4 v 81.91 c 0,25.75 0,60.85 -50.7,60.85 -50.7,0 -50.7,-35.1 -50.7,-60.85 z m -223.61,67.87 c 0,87.76 50.71,212.98 274.31,212.98 223.61,0 274.32,-125.22 274.32,-212.98 v -205.95 h -325.02 v -160.33 c 0,-25.74 0,-60.85 50.7,-60.85 50.7,0 50.7,35.11 50.7,60.85 v 93.62 h 223.62 v -79.58 c 0,-87.76 -50.71,-212.97 -274.32,-212.97 -223.6,0 -274.31,125.21 -274.31,212.97 z"
         style="fill:none;stroke:#0e0f0e;stroke-width:10;stroke-linecap:butt;stroke-linejoin:miter;stroke-miterlimit:10;stroke-dasharray:none;stroke-opacity:1"
         transform="matrix(0.13333333,0,0,-0.13333333,0,960.50667)" />
      <path
         id="path35"
         d="m 9103.63,6483.84 h 200.2 v -45.64 c 0,-29.25 9.1,-66.7 57.21,-66.7 33.8,0 49.39,21.07 49.39,55 0,59.68 -76.69,97.13 -149.5,147.45 -72.8,50.32 -149.5,112.34 -149.5,222.34 0,141.59 102.71,215.32 249.61,215.32 154.71,0 248.31,-58.52 248.31,-196.6 v -39.79 h -200.21 v 39.79 c 0,18.72 -1.3,58.51 -48.1,58.51 -31.2,0 -49.4,-16.38 -49.4,-50.32 0,-59.68 87.1,-94.79 153.4,-147.44 76.7,-52.66 153.4,-107.66 153.4,-222.34 0,-60.85 -14.29,-220 -257.4,-220 -197.61,0 -257.41,78.4 -257.41,201.28 z"
         style="fill:none;stroke:#0e0f0e;stroke-width:10;stroke-linecap:butt;stroke-linejoin:miter;stroke-miterlimit:10;stroke-dasharray:none;stroke-opacity:1"
         transform="matrix(0.13333333,0,0,-0.13333333,0,960.50667)" />
      <path
         id="path36"
         d="M 938.094,1230.18 H 28.9141 v 909.18 H 938.094 v -909.18"
         style="fill:#2c4681;fill-opacity:1;fill-rule:nonzero;stroke:none"
         transform="matrix(0.13333333,0,0,-0.13333333,0,960.50667)" />
      <path
         id="path37"
         d="M 938.094,150 H 28.9141 v 909.19 H 938.094 V 150"
         style="fill:#5dba47;fill-opacity:1;fill-rule:nonzero;stroke:none"
         transform="matrix(0.13333333,0,0,-0.13333333,0,960.50667)" />
      <text
         id="text37"
         xml:space="preserve"
         transform="matrix(1.3333333,0,0,1.3333333,168.52267,940.50507)"><tspan
           id="tspan37"
           style="font-variant:normal;font-weight:normal;font-size:60px;font-family:HelveticaInserat-Roman;writing-mode:lr-tb;fill:#0e0f0e;fill-opacity:1;fill-rule:nonzero;stroke:none"
           x="0"
           dx="0 6"
           y="0">#62BA46</tspan><tspan
           id="tspan38"
           style="font-variant:normal;font-weight:normal;font-size:60px;font-family:HelveticaInserat-Roman;writing-mode:lr-tb;fill:#0e0f0e;fill-opacity:1;fill-rule:nonzero;stroke:none"
           x="-0.0011718801"
           dx="0 6"
           y="-108.017">#0E427E</tspan><tspan
           id="tspan39"
           style="font-variant:normal;font-weight:normal;font-size:60px;font-family:HelveticaInserat-Roman;writing-mode:lr-tb;fill:#0e0f0e;fill-opacity:1;fill-rule:nonzero;stroke:none"
           x="-123.50117"
           y="-221.15401">Hex Code</tspan></text>
    </g>
  </g>
</svg>
