<svg width="99" height="32" viewBox="0 0 99 32" fill="none" xmlns="http://www.w3.org/2000/svg">
<g id="Group 1321322421">
<g id="Group 1321322417">
<g id="Group 1321322416">
<path id="Vector" fill-rule="evenodd" clip-rule="evenodd" d="M12.1776 0.969727H19.9491C26.1235 0.969727 31.1773 5.99565 31.1773 12.1358V19.8643C31.1773 26.0044 26.1235 31.0303 19.9491 31.0303H12.1776C6.00332 31.0421 0.949463 26.0162 0.949463 19.8761V12.1476C0.949463 5.99565 6.00332 0.969727 12.1776 0.969727ZM5.35968 23.0173C4.93058 23.0173 4.56107 22.8632 4.26308 22.5669C3.9651 22.2705 3.81014 21.9031 3.81014 21.4763C3.81014 21.0496 3.95318 20.7296 4.22733 20.4688C4.5134 20.1962 4.84714 20.0183 5.26432 19.9354C5.93182 19.805 6.56354 19.6035 7.17146 19.319C7.77934 19.0345 8.30378 18.7263 8.76867 18.3707C9.23351 18.0151 9.60303 17.6358 9.86527 17.2328C10.1394 16.8298 10.2705 16.4149 10.2705 16.0119C10.2705 15.6088 10.1394 15.2058 9.86527 14.8028C9.59109 14.3998 9.23351 14.0323 8.76867 13.6767C8.30378 13.3211 7.7674 13.0129 7.17146 12.7284C6.56354 12.4439 5.93182 12.2306 5.26432 12.0883C4.85906 12.0054 4.5134 11.8275 4.22733 11.555C3.95318 11.2823 3.81014 10.9504 3.81014 10.5474C3.81014 10.1206 3.9651 9.75318 4.26308 9.45685C4.56107 9.16052 4.93058 9.00643 5.35968 9.00643C5.4431 9.00643 5.52654 9.00643 5.58614 9.01828C5.64575 9.01828 5.72918 9.04197 5.81262 9.06571C6.76618 9.25533 7.68397 9.5754 8.58986 10.0258C9.49576 10.4762 10.3063 11.0215 11.0214 11.6498C11.7366 12.278 12.3087 12.9773 12.7378 13.7241C13.167 14.4709 13.3815 15.2295 13.3815 16.0119C13.3815 16.7942 13.167 17.5528 12.7378 18.3114C12.3087 19.0701 11.7366 19.7694 11.0214 20.3858C10.3063 21.0022 9.49576 21.5475 8.58986 21.9979C7.68397 22.4483 6.75424 22.7684 5.81262 22.958C5.72918 22.9817 5.64575 22.9936 5.58614 23.0054C5.52654 23.0054 5.4431 23.0173 5.35968 23.0173ZM14.0967 16C14.0967 15.4429 14.2874 14.9687 14.6807 14.5894C15.0741 14.1983 15.5389 14.0086 16.0991 14.0086C16.6594 14.0086 17.1361 14.1983 17.5176 14.5894C17.9109 14.9806 18.1016 15.4429 18.1016 16C18.1016 16.5571 17.9109 17.0312 17.5176 17.4106C17.1242 17.8017 16.6594 17.9914 16.0991 17.9914C15.5389 17.9914 15.0621 17.8017 14.6807 17.4106C14.2874 17.0194 14.0967 16.5571 14.0967 16ZM26.7909 23.0173C26.7075 23.0173 26.6241 23.0173 26.5645 23.0054C26.5049 23.0054 26.4214 22.9817 26.338 22.958C25.3844 22.7684 24.4666 22.4483 23.5607 21.9979C22.6549 21.5475 21.8444 21.014 21.1292 20.3858C20.414 19.7576 19.8419 19.0701 19.4128 18.3114C18.9836 17.5528 18.7691 16.7823 18.7691 16.0119C18.7691 15.2414 18.9836 14.4828 19.4128 13.7241C19.8419 12.9773 20.414 12.278 21.1292 11.6498C21.8444 11.0215 22.6549 10.4762 23.5607 10.0258C24.4666 9.5754 25.3964 9.25533 26.338 9.06571C26.4214 9.04197 26.5049 9.03012 26.5645 9.01828C26.6241 9.01828 26.7075 9.00643 26.7909 9.00643C27.2201 9.00643 27.5896 9.16052 27.8875 9.45685C28.1855 9.75318 28.3405 10.1206 28.3405 10.5474C28.3405 10.9741 28.1974 11.2942 27.9233 11.555C27.6492 11.8275 27.3035 12.0054 26.8863 12.0883C26.2188 12.2424 25.5752 12.4558 24.9792 12.7284C24.3713 13.0011 23.8468 13.3211 23.382 13.6767C22.9171 14.0323 22.5476 14.3998 22.2854 14.8028C22.0112 15.194 21.8801 15.597 21.8801 16.0119C21.8801 16.4267 22.0112 16.8298 22.2854 17.2328C22.5595 17.6358 22.9171 18.0151 23.382 18.3707C23.8468 18.7263 24.3832 19.0345 24.9792 19.319C25.5871 19.5916 26.2188 19.805 26.8863 19.9354C27.2915 20.0183 27.6372 20.1962 27.9233 20.4688C28.2094 20.7414 28.3405 21.0733 28.3405 21.4763C28.3405 21.9031 28.1855 22.2705 27.8875 22.5669C27.5896 22.8632 27.2201 23.0173 26.7909 23.0173Z" fill="#FF6600"/>
</g>
<g id="Group 1321322415">
<path id="Vector_2" d="M38.5559 20.2313V18.5007C38.9254 18.394 39.0923 17.8843 39.0923 17.5168V9.72906H40.8325V17.5405C40.8325 18.2992 40.6537 18.7496 40.5941 18.9037C40.2484 19.7216 39.5691 20.172 38.5559 20.2313ZM38.6512 6.93159V5.11802H41.2616V4.229H43.0257V5.11802H48.5866V6.93159H43.0257V8.29474H41.2616V6.93159H38.6512ZM48.3537 5.11802H51.7866V4.229H53.5743V5.11802H56.1728C56.1728 6.38636 56.149 6.93159 54.7902 6.93159H53.5743V8.29474H51.7866V6.93159H48.3537V5.11802ZM43.7171 9.34972H45.4811V16.2722C45.4811 19.6741 50.4518 18.5718 52.4421 18.5718V20.3261C49.0331 20.3261 43.7171 21.7367 43.7171 16.2603V9.36156V9.34972ZM48.2822 9.34972H50.0224V14.6364C50.0224 15.0631 50.0702 15.3239 50.1296 15.4069C50.1774 15.478 50.2968 15.5373 50.4752 15.5729V17.3035C49.9035 17.256 49.4503 17.1019 49.1285 16.853C48.8186 16.6041 48.616 16.3552 48.4967 16.0825C48.3657 15.7743 48.2822 15.3713 48.2822 14.8735V9.36156V9.34972ZM53.7892 9.34972H55.6601V16.7819C55.6601 17.4694 55.5057 18.0265 56.1728 18.4769V20.5394C54.2775 20.0653 53.7892 18.8444 53.7892 17.339V9.33787V9.34972ZM59.9513 20.3735V18.5599C60.2374 18.4296 60.4401 18.2873 60.5595 18.1095C60.7262 17.8724 60.8217 17.5287 60.8217 17.0782V6.61157C60.8217 5.97148 61.0839 5.42621 61.5961 4.97578C62.0733 4.5609 62.681 4.3594 63.432 4.3594H77.5565C77.5565 5.80553 77.5327 6.13741 76.0306 6.13741H63.7775C62.9671 6.13741 62.5738 6.46933 62.5738 7.14496V17.4694C62.5738 18.0028 62.4066 18.5244 62.0611 19.0341C61.7155 19.5438 61.2745 19.8994 60.7618 20.1009C60.5951 20.1602 60.3329 20.255 59.9513 20.3617V20.3735ZM63.4437 20.4209V18.6666H64.338V16.2011H66.1017V18.6666H68.0088V16.2011H69.773V18.6666H70.6668V20.4209H63.4437ZM63.5631 9.06523V7.31094H70.4407C70.4407 8.82818 70.4046 9.06523 68.8431 9.06523H63.5631ZM68.9148 15.4069H65.1124C64.7074 15.4069 64.3614 15.2646 64.0636 14.9801C63.7298 14.6601 63.5631 14.2689 63.5631 13.7948V11.3767C63.5631 11.0329 63.7181 10.7129 64.0159 10.4284C64.338 10.1084 64.7313 9.95427 65.1957 9.95427H68.9148C69.3441 9.95427 69.7135 10.1321 70.0352 10.4758C70.2974 10.7485 70.4407 11.0566 70.4407 11.3767V13.9726C70.4407 14.3164 70.3096 14.6245 70.0352 14.8972C69.7135 15.2291 69.3441 15.395 68.9148 15.395V15.4069ZM65.7801 13.6526H68.1399C68.307 13.6526 68.4381 13.6051 68.5453 13.4984C68.6409 13.4036 68.7003 13.2732 68.7003 13.1429V12.2538C68.7003 12.1234 68.6526 12.0168 68.5809 11.9101C68.4737 11.7916 68.3548 11.7323 68.2237 11.7323H65.8873C65.5057 11.7323 65.3268 11.8864 65.3268 12.2064V13.1429C65.3268 13.297 65.3629 13.4155 65.4462 13.4866C65.5535 13.5933 65.6729 13.6526 65.7918 13.6526H65.7801ZM71.3467 8.60297H75.1129V7.25166H76.8772V8.60297H77.6876V10.381H76.8772V17.1375C76.8772 19.5556 74.6841 20.4209 72.5743 20.4209V18.8444C73.2059 18.8444 75.1129 18.311 75.1129 17.3271V10.3928H72.7532C71.3345 10.3928 71.3467 9.95427 71.3467 8.61481V8.60297ZM71.9544 16.853V12.2064H73.7186V15.6677C73.7186 16.8175 73.0154 16.853 71.9544 16.853ZM81.335 20.5039V18.7496C82.2527 18.6785 83.0393 18.3584 83.707 17.7657C84.6963 16.9004 85.1851 15.8692 85.1851 14.672V4.27642H86.9489V14.6601C86.9489 16.5804 86.2339 18.0976 84.8152 19.2237C84.1836 19.7216 83.5164 20.0653 82.8132 20.2668C82.4793 20.3617 81.9905 20.4446 81.335 20.5039ZM81.5139 16.0707V4.70315H83.2776V14.3045C83.2776 15.7269 82.8965 16.0707 81.5139 16.0707ZM88.3676 19.6505V9.80018C88.3676 9.1482 88.5225 8.67409 88.8203 8.36586C89.1303 8.05769 89.4641 7.89175 89.8096 7.89175H92.7659V6.01891H90.084C88.5937 6.01891 88.3554 5.7107 88.3554 4.26456H98.9281C98.9281 5.62772 98.9164 6.01891 97.4738 6.01891H94.4941V7.89175H97.1877C97.7243 7.89175 98.1293 8.04584 98.4276 8.34217C98.7492 8.67409 98.9164 9.2786 98.9164 10.1558V17.6946C98.9164 18.4177 98.7492 18.9274 98.4276 19.2474C98.0937 19.5556 97.5454 19.7097 96.7827 19.7097H96.02V17.9554H96.4489C96.6872 17.9554 96.8661 17.8961 96.9616 17.7895C97.0805 17.6591 97.1283 17.4339 97.1283 17.1019V10.4758C97.1283 10.215 97.1044 10.0491 97.0688 9.97796C96.9255 9.74091 96.6633 9.62236 96.2822 9.62236H94.4941V20.3972H92.7421V9.62236H90.8229C90.5724 9.62236 90.4057 9.66979 90.3102 9.7646C90.2151 9.85941 90.1674 9.95427 90.1435 10.0254C90.1318 10.0965 90.1196 10.2506 90.1196 10.5114V18.1451C90.1196 19.4964 89.6069 19.6505 88.3315 19.6505H88.3676Z" fill="#FF6600"/>
<path id="Vector_3" d="M98.9394 27.4027C98.9394 27.5094 98.9038 27.6042 98.8205 27.6753C98.7489 27.7464 98.6533 27.7939 98.5461 27.7939C98.4389 27.7939 98.3434 27.7583 98.2722 27.6753C98.2006 27.6042 98.1528 27.5094 98.1528 27.4027V24.629C98.1528 24.5223 98.1889 24.4275 98.2722 24.3563C98.3434 24.2852 98.4389 24.2378 98.5461 24.2378C98.6533 24.2378 98.7489 24.2734 98.8205 24.3563C98.8921 24.4275 98.9394 24.5223 98.9394 24.629V27.4027Z" fill="#FF6600"/>
<path id="Vector_4" d="M96.5923 27.4027C96.5923 27.5094 96.5562 27.6042 96.4729 27.6753C96.4012 27.7464 96.3062 27.7939 96.199 27.7939C96.0913 27.7939 95.9963 27.7583 95.9246 27.6753C95.853 27.6042 95.8052 27.5094 95.8052 27.4027V27.213C95.8052 27.0471 95.7579 26.9167 95.6863 26.81C95.6147 26.7033 95.5313 26.6204 95.4358 26.5611C95.3408 26.5018 95.2331 26.4662 95.1141 26.4426C94.9947 26.4189 94.8997 26.407 94.8042 26.407H91.9556C91.7884 26.407 91.6096 26.3833 91.4429 26.3477C91.2762 26.3003 91.1091 26.241 90.9541 26.1462V27.4027C90.9541 27.5094 90.9185 27.6042 90.8352 27.6753C90.7635 27.7464 90.668 27.7939 90.5608 27.7939C90.4536 27.7939 90.358 27.7583 90.2869 27.6753C90.2152 27.6042 90.1675 27.5094 90.1675 27.4027V24.629C90.1675 24.5223 90.2031 24.4275 90.2869 24.3563C90.358 24.2852 90.4536 24.2378 90.5608 24.2378C90.668 24.2378 90.7635 24.2734 90.8352 24.3563C90.9063 24.4275 90.9541 24.5223 90.9541 24.629V24.7712C90.9541 24.949 90.9901 25.0912 91.0613 25.198C91.1329 25.3046 91.2163 25.3994 91.3118 25.4587C91.4073 25.518 91.5262 25.5654 91.6334 25.5891C91.7528 25.6128 91.8601 25.6247 91.9556 25.6247H94.8042C94.9709 25.6247 95.1497 25.6484 95.3169 25.6958C95.4836 25.7432 95.6502 25.8025 95.8052 25.8973V24.6408C95.8052 24.5341 95.8413 24.4393 95.9246 24.3682C95.9963 24.2971 96.0913 24.2496 96.199 24.2496C96.3062 24.2496 96.4012 24.2852 96.4729 24.3682C96.5445 24.4512 96.5923 24.5341 96.5923 24.6408V27.4146V27.4027Z" fill="#FF6600"/>
<path id="Vector_5" d="M83.0027 26.4067C82.8477 26.4067 82.7049 26.3829 82.5738 26.3237C82.4427 26.2644 82.3233 26.1933 82.2278 26.0866C82.1328 25.9918 82.0494 25.8732 81.9895 25.7428C81.93 25.6125 81.9061 25.4702 81.9061 25.3161C81.9061 25.162 81.93 25.0198 81.9895 24.8894C82.0494 24.759 82.1206 24.6405 82.2278 24.5457C82.3233 24.4508 82.4427 24.3678 82.5738 24.3086C82.7049 24.2493 82.8477 24.2256 83.0027 24.2256H87.9849C88.0926 24.2256 88.1877 24.2612 88.2593 24.3441C88.3309 24.4153 88.3782 24.5101 88.3782 24.6168C88.3782 24.7234 88.3426 24.8182 88.2593 24.8894C88.1877 24.9605 88.0926 25.0079 87.9849 25.0079H82.991C82.9072 25.0079 82.836 25.0316 82.7761 25.0909C82.7166 25.1502 82.681 25.2213 82.681 25.3043C82.681 25.3872 82.7166 25.4583 82.7761 25.5176C82.836 25.5769 82.9072 25.6125 82.991 25.6125H87.5205C87.675 25.6125 87.8182 25.6362 87.9493 25.6954C88.0804 25.7547 88.1998 25.8258 88.2949 25.9325C88.3904 26.0273 88.4737 26.1459 88.5332 26.2763C88.5931 26.4067 88.617 26.5489 88.617 26.703C88.617 26.8571 88.5931 26.9993 88.5332 27.1297C88.4737 27.2601 88.4021 27.3786 88.2949 27.4735C88.1998 27.5683 88.0804 27.6513 87.9493 27.6987C87.8182 27.758 87.675 27.7817 87.5205 27.7817H82.5499C82.4427 27.7817 82.3472 27.7461 82.2755 27.6631C82.2044 27.5801 82.1566 27.4972 82.1566 27.3905C82.1566 27.2838 82.1922 27.189 82.2755 27.1179C82.3472 27.0467 82.4427 26.9993 82.5499 26.9993H87.556C87.6394 26.9993 87.711 26.9756 87.7705 26.9163C87.8299 26.8571 87.866 26.786 87.866 26.703C87.866 26.62 87.8299 26.5371 87.7705 26.4778C87.711 26.4185 87.6394 26.3829 87.556 26.3829H83.0027V26.4067Z" fill="#FF6600"/>
<path id="Vector_6" d="M74.4574 26.0158C74.4574 26.1106 74.4691 26.2173 74.4929 26.3358C74.5168 26.4544 74.5646 26.5611 74.6362 26.6559C74.7074 26.7507 74.8029 26.8337 74.9101 26.9048C75.0295 26.9759 75.1845 27.0115 75.3751 27.0115H78.6408C78.8319 27.0115 78.9747 26.9759 79.1058 26.9048C79.2252 26.8337 79.3202 26.7507 79.3918 26.6559C79.4635 26.5611 79.5112 26.4544 79.5351 26.3358C79.559 26.2173 79.5707 26.1106 79.5707 26.0158V24.629C79.5707 24.5223 79.6063 24.4275 79.6901 24.3563C79.7613 24.2852 79.8568 24.2378 79.964 24.2378C80.0712 24.2378 80.1667 24.2734 80.2384 24.3563C80.3095 24.4275 80.3573 24.5223 80.3573 24.629V26.0158C80.3573 26.2173 80.3217 26.4307 80.2501 26.6441C80.1784 26.8574 80.0834 27.0471 79.9523 27.213C79.8212 27.379 79.6662 27.5212 79.4752 27.6279C79.2846 27.7346 79.0819 27.7939 78.8436 27.7939H75.1007C74.8745 27.7939 74.6718 27.7227 74.5051 27.6042C74.3263 27.4975 74.183 27.3553 74.0519 27.1894C73.9208 27.0234 73.8374 26.8337 73.7658 26.6322C73.6942 26.4307 73.6708 26.2173 73.6708 26.0158V24.629C73.6708 24.5223 73.7063 24.4275 73.7897 24.3563C73.8613 24.2852 73.9569 24.2378 74.0641 24.2378C74.1713 24.2378 74.2663 24.2734 74.338 24.3563C74.4096 24.4275 74.4574 24.5223 74.4574 24.629V26.0158Z" fill="#FF6600"/>
<path id="Vector_7" d="M72.109 27.4027C72.109 27.5094 72.073 27.6042 71.9896 27.6753C71.918 27.7464 71.8229 27.7939 71.7157 27.7939C71.6085 27.7939 71.513 27.7583 71.4413 27.6753C71.3697 27.6042 71.3224 27.5094 71.3224 27.4027V27.213C71.3224 27.0471 71.2747 26.9167 71.203 26.81C71.1314 26.7033 71.048 26.6204 70.9525 26.5611C70.8575 26.5018 70.7503 26.4662 70.6309 26.4426C70.5115 26.4189 70.4164 26.407 70.3209 26.407H67.4723C67.3052 26.407 67.1268 26.3833 66.9596 26.3477C66.7929 26.3003 66.6258 26.241 66.4708 26.1462V27.4027C66.4708 27.5094 66.4352 27.6042 66.3519 27.6753C66.2802 27.7464 66.1847 27.7939 66.0775 27.7939C65.9703 27.7939 65.8748 27.7583 65.8036 27.6753C65.732 27.6042 65.6842 27.5094 65.6842 27.4027V24.629C65.6842 24.5223 65.7203 24.4275 65.8036 24.3563C65.8748 24.2852 65.9703 24.2378 66.0775 24.2378C66.1847 24.2378 66.2802 24.2734 66.3519 24.3563C66.4235 24.4275 66.4708 24.5223 66.4708 24.629V24.7712C66.4708 24.949 66.5069 25.0912 66.578 25.198C66.6497 25.3046 66.733 25.3994 66.8285 25.4587C66.924 25.518 67.0429 25.5654 67.1502 25.5891C67.2696 25.6128 67.3768 25.6247 67.4723 25.6247H70.3209C70.4881 25.6247 70.6664 25.6484 70.8336 25.6958C71.0003 25.7432 71.1674 25.8025 71.3224 25.8973V24.6408C71.3224 24.5341 71.358 24.4393 71.4413 24.3682C71.513 24.2971 71.6085 24.2496 71.7157 24.2496C71.8229 24.2496 71.918 24.2852 71.9896 24.3682C72.0613 24.4393 72.109 24.5341 72.109 24.6408V27.4146V27.4027Z" fill="#FF6600"/>
<path id="Vector_8" d="M57.4471 26.0158C57.4471 25.8143 57.4827 25.6009 57.5544 25.3876C57.626 25.1742 57.721 24.9846 57.8521 24.8186C57.9832 24.6527 58.1382 24.5104 58.3293 24.4037C58.5198 24.2971 58.7226 24.2378 58.9609 24.2378H63.7404C63.8476 24.2378 63.9431 24.2734 64.0147 24.3563C64.0864 24.4275 64.1337 24.5223 64.1337 24.629C64.1337 24.7356 64.0981 24.8305 64.0147 24.9016C63.9431 24.9727 63.8476 25.0201 63.7404 25.0201H59.1275C58.937 25.0201 58.782 25.0557 58.6626 25.1268C58.5437 25.198 58.4482 25.2809 58.3887 25.3757C58.3171 25.4705 58.2693 25.5773 58.2454 25.6958C58.222 25.8143 58.2099 25.921 58.2099 26.0158C58.2099 26.1106 58.222 26.2173 58.2454 26.3358C58.2693 26.4544 58.3171 26.5611 58.3887 26.6559C58.4604 26.7507 58.5554 26.8337 58.6626 26.9048C58.782 26.9759 58.937 27.0115 59.1275 27.0115H63.7404C63.8476 27.0115 63.9431 27.0471 64.0147 27.1301C64.0864 27.2012 64.1337 27.296 64.1337 27.4027C64.1337 27.5094 64.0981 27.6042 64.0147 27.6753C63.9431 27.7464 63.8476 27.7939 63.7404 27.7939H58.8775C58.6509 27.7939 58.4482 27.7346 58.2815 27.6279C58.1026 27.5212 57.9594 27.379 57.8404 27.213C57.721 27.0471 57.626 26.8456 57.5544 26.6441C57.4949 26.4307 57.4588 26.2292 57.4588 26.0277L57.4471 26.0158Z" fill="#FF6600"/>
<path id="Vector_9" d="M55.0993 26.0158C55.0993 25.921 55.0876 25.8143 55.0637 25.6958C55.0398 25.5773 54.9921 25.4705 54.9209 25.3757C54.8493 25.2809 54.7538 25.198 54.6348 25.1268C54.5154 25.0557 54.3605 25.0201 54.1699 25.0201H51.2136C51.0231 25.0201 50.8681 25.0557 50.7492 25.1268C50.6298 25.198 50.5342 25.2809 50.4748 25.3757C50.4031 25.4705 50.3554 25.5773 50.3315 25.6958C50.3081 25.8143 50.2959 25.921 50.2959 26.0158V27.4027C50.2959 27.5094 50.2603 27.6042 50.177 27.6753C50.1054 27.7464 50.0098 27.7939 49.9026 27.7939C49.7954 27.7939 49.7 27.7583 49.6285 27.6753C49.557 27.6042 49.5093 27.5094 49.5093 27.4027V26.0158C49.5093 25.8143 49.545 25.6009 49.6166 25.3876C49.6881 25.1742 49.7832 24.9846 49.9143 24.8186C50.0459 24.6527 50.2004 24.5104 50.3914 24.4037C50.582 24.2971 50.7847 24.2378 51.023 24.2378H54.456C54.6821 24.2378 54.8849 24.3089 55.052 24.4156C55.2309 24.5223 55.3737 24.6645 55.4931 24.8305C55.612 24.9964 55.7075 25.1861 55.7792 25.3876C55.8386 25.5891 55.8742 25.8025 55.8742 26.004V27.3908C55.8742 27.4975 55.8386 27.5923 55.7553 27.6635C55.6836 27.7346 55.5881 27.782 55.4809 27.782C55.3737 27.782 55.2782 27.7464 55.207 27.6635C55.1354 27.5923 55.0876 27.4975 55.0876 27.3908V26.004L55.0993 26.0158Z" fill="#FF6600"/>
<path id="Vector_10" d="M47.9595 27.4027C47.9595 27.5094 47.9238 27.6042 47.8403 27.6753C47.7688 27.7464 47.6735 27.7939 47.5662 27.7939C47.4589 27.7939 47.3636 27.7583 47.292 27.6753C47.2205 27.6042 47.1729 27.5094 47.1729 27.4027V24.629C47.1729 24.5223 47.2086 24.4275 47.292 24.3563C47.3754 24.2852 47.4589 24.2378 47.5662 24.2378C47.6735 24.2378 47.7688 24.2734 47.8403 24.3563C47.9118 24.4275 47.9595 24.5223 47.9595 24.629V27.4027Z" fill="#FF6600"/>
<path id="Vector_11" d="M39.4138 27.7952C39.3065 27.7952 39.2112 27.7596 39.1397 27.6766C39.0682 27.6055 39.0205 27.5107 39.0205 27.404C39.0205 27.2973 39.0562 27.2144 39.1278 27.1433C39.1993 27.0721 39.2827 27.0247 39.39 27.0129C39.5568 26.9773 39.7237 26.9299 39.8787 26.8588C40.0336 26.7877 40.1648 26.7046 40.2839 26.6217C40.4031 26.5269 40.4985 26.432 40.5581 26.3372C40.6296 26.2305 40.6654 26.1357 40.6654 26.029C40.6654 25.9223 40.6296 25.8275 40.5581 25.7208C40.4866 25.6141 40.3912 25.5193 40.2839 25.4363C40.1648 25.3415 40.0336 25.2704 39.8787 25.1992C39.7237 25.1281 39.5688 25.0688 39.39 25.0333C39.2827 25.0096 39.1993 24.9622 39.1278 24.9029C39.0562 24.8318 39.0205 24.7488 39.0205 24.6421C39.0205 24.5355 39.0562 24.4407 39.1397 24.3695C39.2112 24.2984 39.3065 24.251 39.4138 24.251C39.4377 24.251 39.4496 24.251 39.4734 24.251C39.4853 24.251 39.5092 24.251 39.533 24.2628C39.7714 24.3103 40.0098 24.3932 40.2363 24.5118C40.4627 24.6303 40.6654 24.7607 40.8561 24.9266C41.0349 25.0926 41.1779 25.2585 41.2852 25.4482C41.3925 25.6378 41.4521 25.8275 41.4521 26.029C41.4521 26.2305 41.3925 26.4202 41.2852 26.6098C41.1779 26.7995 41.0349 26.9773 40.8561 27.1314C40.6773 27.2855 40.4747 27.4277 40.2363 27.5344C40.0098 27.653 39.7714 27.7359 39.533 27.7833C39.5092 27.7833 39.4972 27.7834 39.4734 27.7952C39.4615 27.7952 39.4377 27.7952 39.4138 27.7952Z" fill="#FF6600"/>
<path id="Vector_12" d="M41.8088 26.0149C41.8088 25.8727 41.8565 25.7541 41.9519 25.6593C42.0473 25.5645 42.1665 25.5171 42.3094 25.5171C42.4525 25.5171 42.5717 25.5645 42.6671 25.6593C42.7624 25.7541 42.8101 25.8727 42.8101 26.0149C42.8101 26.1572 42.7624 26.2757 42.6671 26.3705C42.5717 26.4654 42.4525 26.5128 42.3094 26.5128C42.1665 26.5128 42.0473 26.4654 41.9519 26.3705C41.8565 26.2757 41.8088 26.1572 41.8088 26.0149Z" fill="#FF6600"/>
<path id="Vector_13" d="M45.2184 27.7952C45.2184 27.7952 45.1827 27.7952 45.1588 27.7952C45.1469 27.7952 45.1231 27.7952 45.0992 27.7833C44.8608 27.7359 44.6225 27.653 44.396 27.5344C44.1695 27.4158 43.9669 27.2855 43.7762 27.1314C43.5974 26.9773 43.4543 26.7995 43.347 26.6098C43.2398 26.4202 43.1802 26.2187 43.1802 26.029C43.1802 25.8393 43.2398 25.6378 43.347 25.4482C43.4543 25.2585 43.5974 25.0807 43.7762 24.9266C43.9549 24.7607 44.1576 24.6303 44.396 24.5118C44.6225 24.3932 44.8608 24.3221 45.0992 24.2628C45.1231 24.2628 45.135 24.2628 45.1588 24.251C45.1707 24.251 45.1946 24.251 45.2184 24.251C45.3257 24.251 45.421 24.2865 45.4926 24.3695C45.5641 24.4407 45.6117 24.5355 45.6117 24.6421C45.6117 24.7488 45.576 24.8318 45.5045 24.9029C45.433 24.974 45.3495 25.0215 45.2423 25.0333C45.0754 25.0688 44.9085 25.1281 44.7536 25.1992C44.5986 25.2704 44.4675 25.3533 44.3483 25.4363C44.2291 25.5312 44.1337 25.626 44.0741 25.7208C44.0026 25.8156 43.9669 25.9223 43.9669 26.029C43.9669 26.1357 44.0026 26.2305 44.0741 26.3372C44.1457 26.4439 44.241 26.5387 44.3483 26.6217C44.4675 26.7165 44.5986 26.7877 44.7536 26.8588C44.9085 26.9299 45.0635 26.9773 45.2423 27.0129C45.3495 27.0366 45.433 27.084 45.5045 27.1433C45.576 27.2144 45.6117 27.2973 45.6117 27.404C45.6117 27.5107 45.576 27.6055 45.4926 27.6766C45.421 27.7478 45.3257 27.7952 45.2184 27.7952Z" fill="#FF6600"/>
</g>
</g>
</g>
</svg>
